<?xml version="1.0" encoding="UTF-8"?>
<svg width="38px" height="29px" viewBox="0 0 38 29" version="1.1" xmlns="http://www.w3.org/2000/svg" xmlns:xlink="http://www.w3.org/1999/xlink">
    <!-- Generator: sketchtool 39.1 (31720) - http://www.bohemiancoding.com/sketch -->
    <title>89B51D2D-2B14-4DE2-8142-55CA2EEC86C0</title>
    <desc>Created with sketchtool.</desc>
    <defs></defs>
    <g id="final" stroke="none" stroke-width="1" fill="none" fill-rule="evenodd" opacity="0.5">
        <g id="Homepage-v1.7" transform="translate(-125.000000, -2395.000000)" fill="#CFD3DE">
            <g id="Group-16" transform="translate(0.000000, 2215.000000)">
                <g id="Group-5" transform="translate(125.000000, 180.000000)">
                    <path d="M10.3,0.3 C4.1,4.6 0,11.3 0,18.8 C0,25.3 4.2,29 8.9,29 C13.2,29 16.8,25.4 16.8,21.1 C16.8,16.8 13.8,13.9 10,13.9 C9.2,13.9 8.3,14 8,14.2 C8.9,10.6 12.6,6.4 15.8,4.7 L10.3,0.3 Z" id="Path"></path>
                    <path d="M30.6,0.3 C24.4,4.6 20.4,11.3 20.4,18.8 C20.4,25.3 24.5,29 29.2,29 C33.6,29 37.1,25.4 37.1,21.1 C37.1,16.8 34.1,13.9 30.4,13.9 C29.6,13.9 28.7,14 28.4,14.2 C29.2,10.6 33,6.4 36.2,4.7 L30.6,0.3 Z" id="Path"></path>
                </g>
            </g>
        </g>
    </g>
</svg>